<svg version="1.1" xmlns="http://www.w3.org/2000/svg" xmlns:xlink="http://www.w3.org/1999/xlink" x="0px" y="0px" viewBox="0 0 256 256" enable-background="new 0 0 256 256" xml:space="preserve"><g><path fill="#ffffff" d="M157.1,22.8l-12.8,12.8l12.6,12.6c6.9,6.9,12.8,12.5,13,12.5c0.7,0,8-7.4,8-8c0-0.3-2.3-2.7-5-5.5c-2.7-2.8-4.9-5.1-4.8-5.3c0.1-0.1,2.5,0,5.4,0.3c23.3,2.1,36.9,9.2,43.9,22.7c4.8,9.2,6.5,19.6,6.5,38.4v10.3h6.2h6.3l-0.3-9.7c-0.4-14.4-0.7-18.9-1.9-25.4c-4.4-26-19-40.5-46.6-46.3c-2.1-0.5-7.5-1.2-12-1.7l-8.1-0.9L173,24l5.4-5.4l-4.3-4.3l-4.2-4.2L157.1,22.8z"/><path fill="#ffffff" d="M19.5,161.9V246h84.1h84.1v-84.1V77.8h-84.1H19.5V161.9z M175.8,161.9v72.2h-72.2H31.5v-72.2V89.7h72.2h72.2V161.9z"/></g></svg>