<svg version="1.1" xmlns="http://www.w3.org/2000/svg" xmlns:xlink="http://www.w3.org/1999/xlink" x="0px" y="0px" viewBox="0 0 256 256" enable-background="new 0 0 256 256" xml:space="preserve">
<g><path fill="#ffffff" d="M126.1,17.7C125,18.6,80.2,96,79.5,98.1c-0.5,1.6,0.1,2.9,1.6,3.6c0.9,0.4,6.1,0.6,16.2,0.6h14.9l0.2,33.5l0.2,33.5l1.2,2.7c5.6,12.3,23,12.3,28.6,0l1.2-2.7l0.2-33.5l0.2-33.5h14.9c10.1,0,15.3-0.2,16.2-0.6c1.6-0.7,2.1-2,1.6-3.7c-0.6-2.1-45.4-79.4-46.5-80.4c-0.6-0.5-1.5-0.9-2-0.9C127.6,16.8,126.7,17.2,126.1,17.7z"/><path fill="#ffffff" d="M17.3,162.6c-2.4,1-4.5,3.1-5.9,5.7c-1.1,2-1.2,2.8-1.3,21.8c-0.2,22.5,0.1,24.7,3.5,31.7c1.2,2.3,3.2,5.4,4.5,6.9c3.2,3.7,9.2,7.6,14,9.1l3.9,1.3h92.2h92.2l3.9-1.3c7.6-2.5,14.4-8.2,18.1-15.3c3.7-7,3.7-7.3,3.7-31c0-20.8,0-21.3-1.2-23.4c-4-7.5-13.7-8.9-19.4-2.8c-3.2,3.4-3.3,4.4-3.3,25.4c0,18-0.1,19.1-1,20.7c-0.6,0.9-1.8,2.2-2.7,2.7c-1.7,1.1-2.8,1.1-90.2,1.1s-88.5,0-90.2-1.1c-0.9-0.6-2.2-1.8-2.7-2.7c-1-1.6-1.1-2.7-1.1-20.7c0-21-0.1-22-3.3-25.4c-0.9-0.9-2.6-2.2-3.8-2.7C24.4,161.5,19.9,161.5,17.3,162.6z"/></g>
</svg>